Coordinates
version=1
nRows=17
nColumns=38
inDegrees=no

Units are S.I. units (second, meters, Newtons, ...)
If the header above contains a line with 'inDegrees', this indicates whether rotational values are in degrees (yes) or radians (no).

endheader
time	pelvis_tilt	pelvis_list	pelvis_rotation	pelvis_tx	pelvis_ty	pelvis_tz	hip_flexion_r	hip_adduction_r	hip_rotation_r	knee_angle_r	ankle_angle_r	subtalar_angle_r	mtp_angle_r	hip_flexion_l	hip_adduction_l	hip_rotation_l	knee_angle_l	ankle_angle_l	subtalar_angle_l	mtp_angle_l	lumbar_extension	lumbar_bending	lumbar_rotation	arm_flex_r	arm_add_r	arm_rot_r	elbow_flex_r	pro_sup_r	wrist_flex_r	wrist_dev_r	arm_flex_l	arm_add_l	arm_rot_l	elbow_flex_l	pro_sup_l	wrist_flex_l	wrist_dev_l
0	-1.29446	1.44644	-0.174711	0.723615	2.14589	0.934206	0.263259	0.0581977	-0.356997	0.559232	-0.220276	0	0	0.0194289	-0.213564	-0.0349738	1.23573	-0.325805	0	0	-0.0820918	0.203706	-0.136248	-0.0408891	-0.356273	0.31827	0.842576	1.52303	0	0	-0.0918229	-0.225698	0.242609	0.833664	1.5708	0	0
0.01	-1.22363	1.44355	-0.244554	0.723772	2.13773	0.936035	0.230493	0.0660669	-0.348695	0.530327	-0.217435	0	0	0.0407606	-0.215805	-0.0333797	1.27996	-0.307889	0	0	-0.093698	0.205287	-0.133641	-0.0345552	-0.360244	0.322448	0.847443	1.52094	0	0	-0.0965799	-0.22159	0.230749	0.8314	1.5708	0	0
0.02	-1.1282	1.44584	-0.331789	0.729222	2.12541	0.93809	0.195952	0.0433145	-0.40731	0.529737	-0.214335	0	0	0.0462911	-0.196916	-0.0268865	1.30493	-0.279085	0	0	-0.0933644	0.206991	-0.141695	-0.0413252	-0.376775	0.325073	0.859185	1.51931	0	0	-0.108075	-0.202545	0.215599	0.817761	1.5708	0	0
0.03	-1.21829	1.44713	-0.253978	0.721933	2.12172	0.938246	0.199833	0.0721401	-0.339304	0.505922	-0.208553	0	0	0.0988796	-0.210409	-0.022946	1.35087	-0.265089	0	0	-0.094058	0.198472	-0.129628	-0.0137719	-0.358013	0.336449	0.837757	1.51392	0	0	-0.112905	-0.216953	0.201999	0.827439	1.5708	0	0
0.04	-1.26273	1.45026	-0.213321	0.719813	2.11486	0.938752	0.193132	0.0790324	-0.321192	0.493184	-0.203351	0	0	0.137204	-0.208778	-0.015513	1.38256	-0.249699	0	0	-0.0906073	0.193394	-0.123758	-0.00175177	-0.354822	0.344034	0.830973	1.50563	0	0	-0.118554	-0.219513	0.193379	0.827561	1.5708	0	0
0.05	-1.25498	1.45376	-0.223352	0.718649	2.1074	0.939817	0.178402	0.0803381	-0.314667	0.48152	-0.199406	0	0	0.165586	-0.203539	-0.0103291	1.40432	-0.239055	0	0	-0.0918729	0.187415	-0.116623	0.00747614	-0.355565	0.353633	0.827012	1.49638	0	0	-0.121453	-0.221694	0.191161	0.824799	1.5708	0	0
0.06	-1.23409	1.45788	-0.246052	0.717948	2.09961	0.940887	0.162691	0.0786468	-0.313717	0.472604	-0.195897	0	0	0.190638	-0.196884	-0.00719969	1.41893	-0.231245	0	0	-0.0930264	0.181204	-0.107479	0.0136205	-0.35959	0.363945	0.826141	1.48177	0	0	-0.121938	-0.225454	0.19836	0.820092	1.5708	0	0
0.07	-1.19632	1.46242	-0.286112	0.717077	2.09194	0.942106	0.145146	0.0767903	-0.309972	0.46172	-0.191009	0	0	0.213926	-0.190201	-0.0117474	1.42583	-0.254423	0	0	-0.101889	0.172698	-0.113796	0.024442	-0.333083	0.322288	0.811658	1.5708	0	0	-0.142514	-0.217255	0.149456	0.834096	1.5708	0	0
0.08	-1.17452	1.46671	-0.309944	0.716394	2.08424	0.942949	0.131347	0.0745454	-0.308731	0.455154	-0.186218	0	0	0.237415	-0.184183	-0.0113053	1.42968	-0.24833	0	0	-0.104126	0.165949	-0.109804	0.0331536	-0.330211	0.322449	0.808118	1.5708	0	0	-0.149519	-0.217624	0.140687	0.835871	1.5708	0	0
0.09	-1.1289	1.47055	-0.356761	0.715836	2.07669	0.943889	0.115803	0.0714964	-0.308466	0.44967	-0.181327	0	0	0.257547	-0.17734	-0.0108724	1.42783	-0.24148	0	0	-0.109041	0.158952	-0.105808	0.0415554	-0.326945	0.320349	0.805875	1.5708	0	0	-0.155032	-0.218685	0.13417	0.837617	1.5708	0	0
0.1	-1.07382	1.47412	-0.413338	0.715312	2.06917	0.944797	0.0998603	0.0680808	-0.307636	0.444579	-0.176551	0	0	0.275564	-0.170431	-0.0122939	1.4208	-0.232637	0	0	-0.114444	0.152148	-0.100739	0.0489748	-0.323889	0.317288	0.805019	1.5708	0	0	-0.159301	-0.220147	0.130377	0.838442	1.5708	0	0
0.11	-1.0291	1.47831	-0.461325	0.714482	2.06165	0.945526	0.0870187	0.0645277	-0.304745	0.442796	-0.172717	0	0	0.293722	-0.164798	-0.0172045	1.40868	-0.231839	0	0	-0.117184	0.145113	-0.0959065	0.0593653	-0.322978	0.325589	0.801872	1.5708	0	0	-0.163704	-0.221622	0.126883	0.837039	1.5708	0	0
0.12	-0.987038	1.48069	-0.506023	0.713983	2.05387	0.946099	0.0719472	0.0628921	-0.301656	0.437302	-0.16746	0	0	0.308909	-0.160913	-0.0182252	1.39346	-0.192561	0	0	-0.120708	0.139985	-0.0920048	0.0667194	-0.31859	0.320572	0.800868	1.5708	0	0	-0.170091	-0.220731	0.118072	0.838145	1.5708	0	0
0.13	-0.902374	1.48141	-0.592169	0.713315	2.04652	0.94703	0.0522148	0.0613899	-0.297216	0.429169	-0.161678	0	0	0.31997	-0.156078	-0.0232025	1.37121	-0.184198	0	0	-0.115168	0.145239	-0.0841679	0.0676935	-0.323967	0.321633	0.806281	1.5708	0	0	-0.14706	-0.22744	0.169373	0.791951	1.5708	0	0
0.14	-0.816485	1.47953	-0.679747	0.713067	2.0391	0.947729	0.0319677	0.060047	-0.295493	0.424441	-0.153349	0	0	0.327906	-0.152491	-0.0295331	1.34514	-0.176848	0	0	-0.140047	0.132156	-0.0910778	0.0893846	-0.313894	0.328481	0.802284	1.5708	0	0	-0.181072	-0.218965	0.0980943	0.839985	1.5708	0	0
0.15	-0.785656	1.4815	-0.712155	0.712842	2.03149	0.947827	0.0206524	0.0575303	-0.295746	0.424946	-0.14887	0	0	0.341579	-0.148065	-0.0349658	1.31507	-0.172001	0	0	-0.142405	0.126895	-0.0769579	0.084832	-0.311839	0.308296	0.810644	1.5708	0	0	-0.176216	-0.223867	0.114049	0.83502	1.5708	0	0
0.16	-0.724813	1.48012	-0.773701	0.712759	2.02392	0.948065	0.00453594	0.0554364	-0.298323	0.424651	-0.14216	0	0	0.348761	-0.144041	-0.0409603	1.27983	-0.166755	0	0	-0.151006	0.122128	-0.0754468	0.0933811	-0.308388	0.307387	0.812502	1.5708	0	0	-0.182162	-0.224196	0.106255	0.840068	1.5708	0	0
